<svg width="34" height="13" viewBox="0 0 34 13" fill="none" xmlns="http://www.w3.org/2000/svg">
<path d="M9.24 12H7.416L1.928 3.664V12H0.104V0.719999H1.928L7.416 9.088V0.719999H9.24V12ZM19.6398 7.168C19.6398 7.46667 19.6184 7.728 19.5758 7.952H12.7918C12.8238 8.85867 13.0744 9.53067 13.5438 9.968C14.0131 10.4053 14.5944 10.624 15.2878 10.624C15.8958 10.624 16.4078 10.4693 16.8238 10.16C17.2504 9.85067 17.5118 9.44 17.6078 8.928H19.5598C19.4424 9.54667 19.1971 10.096 18.8238 10.576C18.4504 11.056 17.9651 11.4347 17.3678 11.712C16.7704 11.9787 16.1038 12.112 15.3678 12.112C14.5144 12.112 13.7571 11.9307 13.0958 11.568C12.4451 11.2053 11.9331 10.6827 11.5598 10C11.1864 9.31733 10.9998 8.512 10.9998 7.584C10.9998 6.66667 11.1864 5.86667 11.5598 5.184C11.9331 4.50133 12.4451 3.97867 13.0958 3.616C13.7571 3.25333 14.5144 3.072 15.3678 3.072C16.2318 3.072 16.9838 3.25333 17.6238 3.616C18.2744 3.968 18.7704 4.45867 19.1118 5.088C19.4638 5.70667 19.6398 6.4 19.6398 7.168ZM17.7998 7.12C17.8211 6.544 17.7198 6.064 17.4958 5.68C17.2824 5.28533 16.9838 4.99733 16.5998 4.816C16.2264 4.624 15.8158 4.528 15.3678 4.528C14.6531 4.528 14.0558 4.74667 13.5758 5.184C13.0958 5.62133 12.8344 6.26667 12.7918 7.12H17.7998ZM33.7529 3.184L31.3049 12H29.2889L27.1129 5.184L24.9049 12H22.9049L20.4569 3.184H22.2969L23.9769 10.32L26.1849 3.184H28.1049L30.3449 10.32L32.0249 3.184H33.7529Z" fill="white"/>
</svg>
